<svg xmlns="http://www.w3.org/2000/svg" viewBox="0 0 1600 620">
  <rect width="1600" height="620" fill="#FBFAF8"/>

  <g transform="translate(80 64) scale(.78)">
    <rect width="512" height="512" rx="120" fill="#1A1714"/>
    <circle cx="256" cy="256" r="152" fill="none" stroke="#FBFAF8" stroke-opacity=".12" stroke-width="14"/>
    <circle cx="256" cy="256" r="94" fill="none" stroke="#FBFAF8" stroke-opacity=".22" stroke-width="14"/>
    <path d="M165 348V164h42l99 113V164h41v184h-38L207 231v117h-42Z" fill="#FBFAF8"/>
    <circle cx="368" cy="148" r="15" fill="#B4562A"/>
  </g>

  <g transform="translate(600 64) scale(.78)">
    <rect width="512" height="512" rx="120" fill="#B4562A"/>
    <circle cx="256" cy="256" r="152" fill="none" stroke="#FBFAF8" stroke-opacity=".18" stroke-width="14"/>
    <circle cx="256" cy="256" r="94" fill="none" stroke="#FBFAF8" stroke-opacity=".32" stroke-width="14"/>
    <path d="M165 348V164h42l99 113V164h41v184h-38L207 231v117h-42Z" fill="#FBFAF8"/>
    <circle cx="368" cy="148" r="15" fill="#1A1714"/>
  </g>

  <g transform="translate(1120 64) scale(.78)">
    <rect width="512" height="512" rx="120" fill="#EAE7E0"/>
    <rect x="7" y="7" width="498" height="498" rx="113" fill="none" stroke="#D6D1C6" stroke-width="14"/>
    <circle cx="256" cy="256" r="152" fill="none" stroke="#1A1714" stroke-opacity=".09" stroke-width="14"/>
    <circle cx="256" cy="256" r="94" fill="none" stroke="#1A1714" stroke-opacity=".15" stroke-width="14"/>
    <path d="M165 348V164h42l99 113V164h41v184h-38L207 231v117h-42Z" fill="#1A1714"/>
    <circle cx="368" cy="148" r="15" fill="#B4562A"/>
  </g>

  <g fill="#1A1714" font-family="-apple-system, BlinkMacSystemFont, 'Segoe UI', sans-serif" text-anchor="middle">
    <text x="280" y="520" font-size="30" font-weight="600">墨黑</text>
    <text x="800" y="520" font-size="30" font-weight="600">铜色</text>
    <text x="1320" y="520" font-size="30" font-weight="600">暖灰</text>
  </g>
  <g fill="#736C60" font-family="-apple-system, BlinkMacSystemFont, 'Segoe UI', sans-serif" text-anchor="middle">
    <text x="280" y="558" font-size="20">安静 · 稳定 · 工具感</text>
    <text x="800" y="558" font-size="20">鲜明 · 温暖 · 品牌感</text>
    <text x="1320" y="558" font-size="20">克制 · 轻盈 · 系统一致</text>
  </g>
</svg>
